<?xml version="1.0" encoding="UTF-8"?>
<svg xmlns="http://www.w3.org/2000/svg" viewBox="0 0 128 128">
  <path style="fill: #1f292e; opacity: .65;" d="M64,44.41c10.8,0,19.59,8.79,19.59,19.59s-8.79,19.59-19.59,19.59-19.59-8.79-19.59-19.59,8.79-19.59,19.59-19.59M64,42.41c-11.92,0-21.59,9.67-21.59,21.59s9.67,21.59,21.59,21.59,21.59-9.67,21.59-21.59-9.67-21.59-21.59-21.59h0Z"/>
  <path style="fill: #1f292e;" d="M64,31.43c-17.99,0-32.57,14.58-32.57,32.57s14.58,32.57,32.57,32.57,32.57-14.58,32.57-32.57-14.58-32.57-32.57-32.57ZM64,91.57c-5.87,0-11.32-1.84-15.79-5l4.3-4.3,1.45-1.45,26.86-26.86,1.45-1.45c-.36-.58-.75-1.13-1.16-1.67l-1.43,1.43-27.4,27.41-1.43,1.43-4.25,4.25c-6.21-5.06-10.17-12.76-10.17-21.36,0-15.2,12.37-27.57,27.57-27.57,5.77,0,11.14,1.78,15.57,4.84l-5.78,5.78-26.75,26.74-1.46,1.46c.35.59.74,1.15,1.15,1.69l34.46-34.46c6.32,5.04,10.38,12.82,10.38,21.52,0,15.2-12.37,27.57-27.57,27.57Z"/>
</svg>