<?xml version="1.0" encoding="UTF-8"?>
<svg id="Layer_1" data-name="Layer 1" xmlns="http://www.w3.org/2000/svg" viewBox="0 0 1024 1024">
  <path d="M512,0C229.23,0,0,229.23,0,512s229.23,512,512,512,512-229.23,512-512S794.77,0,512,0ZM687.92,928.5c-55.69,23.56-114.87,35.5-175.92,35.5s-120.23-11.94-175.92-35.5c-53.82-22.76-102.16-55.36-143.69-96.89-41.53-41.53-74.13-89.87-96.89-143.69-23.56-55.69-35.5-114.87-35.5-175.92s11.94-120.23,35.5-175.92c22.76-53.82,55.36-102.16,96.89-143.69,5.42-5.42,10.95-10.69,16.6-15.79l21.81,21.81c-85.94,77.1-140.01,189.03-140.01,313.59,0,232.63,188.58,421.21,421.21,421.21,91.39,0,175.98-29.11,245.01-78.55l22.07,22.07c-28.19,20.71-58.68,38.03-91.16,51.77ZM841.03,723.78L300.22,182.98c18.82-12.14,38.69-22.65,59.51-31.46,48.21-20.39,99.44-30.73,152.27-30.73s104.06,10.34,152.27,30.73c46.58,19.71,88.42,47.92,124.35,83.86,35.94,35.93,64.15,77.77,83.86,124.35,20.39,48.21,30.73,99.44,30.73,152.27s-10.34,104.06-30.73,152.27c-8.81,20.82-19.32,40.69-31.45,59.51ZM804.35,771.96c-5.06,5.69-10.31,11.24-15.73,16.66-2.14,2.14-4.29,4.25-6.47,6.33L229.05,241.85c2.08-2.18,4.19-4.33,6.33-6.47,5.42-5.42,10.97-10.67,16.66-15.73l552.31,552.31ZM190.84,288.5l544.67,544.66c-22.24,15.51-46.04,28.66-71.24,39.32-48.21,20.39-99.44,30.73-152.27,30.73s-104.06-10.34-152.27-30.73c-46.58-19.71-88.42-47.92-124.35-83.86-35.94-35.93-64.15-77.77-83.86-124.35-20.39-48.21-30.73-99.44-30.73-152.27s10.34-104.06,30.73-152.27c10.66-25.19,23.81-49,39.32-71.23ZM831.61,831.61c-2.14,2.14-4.29,4.25-6.47,6.33l-21.77-21.77c80.02-76.67,129.84-184.6,129.84-304.17,0-232.63-188.58-421.21-421.21-421.21-86.34,0-166.61,25.98-233.42,70.55l-22.21-22.21c24.94-17.15,51.58-31.73,79.71-43.63,55.69-23.56,114.87-35.5,175.92-35.5s120.23,11.94,175.92,35.5c53.82,22.76,102.16,55.36,143.69,96.89,41.53,41.53,74.13,89.87,96.89,143.69,23.56,55.69,35.5,114.87,35.5,175.92s-11.94,120.23-35.5,175.92c-22.76,53.82-55.36,102.16-96.89,143.69Z"/>
</svg>