<?xml version="1.0" encoding="UTF-8"?>
<svg  xmlns="http://www.w3.org/2000/svg" viewBox="0 0 1024 1024">
  <path d="M512,40c63.74,0,125.55,12.47,183.71,37.08,56.2,23.77,106.68,57.81,150.04,101.17,43.36,43.36,77.4,93.84,101.17,150.04,24.6,58.16,37.08,119.97,37.08,183.71s-12.47,125.55-37.08,183.71c-23.77,56.2-57.81,106.68-101.17,150.04-43.36,43.36-93.84,77.4-150.04,101.17-58.16,24.6-119.97,37.08-183.71,37.08s-125.55-12.47-183.71-37.08c-56.2-23.77-106.68-57.81-150.04-101.17-43.36-43.36-77.4-93.84-101.17-150.04-24.6-58.16-37.08-119.97-37.08-183.71s12.47-125.55,37.08-183.71c23.77-56.2,57.81-106.68,101.17-150.04,43.36-43.36,93.84-77.4,150.04-101.17,58.16-24.6,119.97-37.08,183.71-37.08M512,0C229.23,0,0,229.23,0,512s229.23,512,512,512,512-229.23,512-512S794.77,0,512,0h0Z"/>
</svg>